<svg width="30" height="30" viewBox="0 0 30 30" fill="none" xmlns="http://www.w3.org/2000/svg">
<path d="M2.61 10L2.585 10.185C1.83323 10.4307 1.17839 10.9078 0.714113 11.5481C0.249833 12.1884 -0.000116808 12.9591 4.09505e-08 13.75V21.25C4.09505e-08 22.2446 0.395088 23.1984 1.09835 23.9017C1.80161 24.6049 2.75544 25 3.75 25H26.25C27.2446 25 28.1984 24.6049 28.9017 23.9017C29.6049 23.1984 30 22.2446 30 21.25V13.75C30.0001 12.9564 29.7485 12.1832 29.2813 11.5417C28.8141 10.9001 28.1554 10.4234 27.4 10.18L27.3775 10H28.75C29.0815 10 29.3995 9.8683 29.6339 9.63388C29.8683 9.39946 30 9.08152 30 8.75C30 8.41848 29.8683 8.10054 29.6339 7.86612C29.3995 7.6317 29.0815 7.5 28.75 7.5H27.0575L26.6575 4.3675C26.5037 3.16113 25.9154 2.05219 25.0029 1.24827C24.0904 0.444351 22.9161 0.000567602 21.7 1.27629e-07H8.2975C7.08207 -0.000274351 5.90816 0.442182 4.99528 1.24463C4.0824 2.04708 3.49307 3.15457 3.3375 4.36L2.9325 7.5H1.25C0.918479 7.5 0.600537 7.6317 0.366117 7.86612C0.131696 8.10054 4.09505e-08 8.41848 4.09505e-08 8.75C4.09505e-08 9.08152 0.131696 9.39946 0.366117 9.63388C0.600537 9.8683 0.918479 10 1.25 10H2.61ZM8.2975 2.5H21.6975C22.3056 2.49994 22.8929 2.72152 23.3494 3.12325C23.8059 3.52499 24.1003 4.07933 24.1775 4.6825L24.8575 10H5.1325L5.8175 4.68C5.89529 4.07728 6.18995 3.52354 6.64639 3.12232C7.10283 2.72109 7.68979 2.49986 8.2975 2.5ZM8.125 19.3725C7.8791 19.3725 7.63561 19.3241 7.40843 19.23C7.18124 19.1359 6.97482 18.9979 6.80094 18.8241C6.62706 18.6502 6.48914 18.4438 6.39504 18.2166C6.30093 17.9894 6.2525 17.7459 6.2525 17.5C6.2525 17.2541 6.30093 17.0106 6.39504 16.7834C6.48914 16.5562 6.62706 16.3498 6.80094 16.1759C6.97482 16.0021 7.18124 15.8641 7.40843 15.77C7.63561 15.6759 7.8791 15.6275 8.125 15.6275C8.62162 15.6275 9.0979 15.8248 9.44906 16.1759C9.80022 16.5271 9.9975 17.0034 9.9975 17.5C9.9975 17.9966 9.80022 18.4729 9.44906 18.8241C9.0979 19.1752 8.62162 19.3725 8.125 19.3725ZM21.87 19.3725C21.6241 19.3725 21.3806 19.3241 21.1534 19.23C20.9262 19.1359 20.7198 18.9979 20.5459 18.8241C20.3721 18.6502 20.2341 18.4438 20.14 18.2166C20.0459 17.9894 19.9975 17.7459 19.9975 17.5C19.9975 17.2541 20.0459 17.0106 20.14 16.7834C20.2341 16.5562 20.3721 16.3498 20.5459 16.1759C20.7198 16.0021 20.9262 15.8641 21.1534 15.77C21.3806 15.6759 21.6241 15.6275 21.87 15.6275C22.3666 15.6275 22.8429 15.8248 23.1941 16.1759C23.5452 16.5271 23.7425 17.0034 23.7425 17.5C23.7425 17.9966 23.5452 18.4729 23.1941 18.8241C22.8429 19.1752 22.3666 19.3725 21.87 19.3725Z" fill="white"/>
<path d="M26.2425 27.5H22.4925V28.125C22.4925 28.6223 22.69 29.0992 23.0417 29.4508C23.3933 29.8025 23.8702 30 24.3675 30C24.8648 30 25.3417 29.8025 25.6933 29.4508C26.045 29.0992 26.2425 28.6223 26.2425 28.125V27.5Z" fill="white"/>
<path d="M7.5 27.5H3.75V28.125C3.75 28.6223 3.94754 29.0992 4.29917 29.4508C4.65081 29.8025 5.12772 30 5.625 30C6.12228 30 6.59919 29.8025 6.95083 29.4508C7.30246 29.0992 7.5 28.6223 7.5 28.125V27.5Z" fill="white"/>
</svg>
