<svg width="28" height="40" viewBox="0 0 28 40" fill="none" xmlns="http://www.w3.org/2000/svg">
<path d="M22.1275 0.170128C22.3722 0.311974 22.5615 0.532603 22.6646 0.795972C22.7677 1.05934 22.7784 1.34988 22.695 1.62013L18.1925 16.2501H26.5C26.7441 16.25 26.983 16.3214 27.187 16.4555C27.391 16.5896 27.5513 16.7805 27.6481 17.0046C27.7449 17.2287 27.7739 17.4763 27.7316 17.7168C27.6893 17.9572 27.5775 18.18 27.41 18.3576L7.41001 39.6076C7.21649 39.8134 6.95898 39.9476 6.67944 39.9883C6.39991 40.029 6.11483 39.9738 5.87069 39.8317C5.62654 39.6896 5.43771 39.469 5.33499 39.2059C5.23226 38.9427 5.2217 38.6525 5.30501 38.3826L9.80751 23.7501H1.50001C1.25587 23.7502 1.01705 23.6788 0.813025 23.5448C0.609 23.4107 0.448703 23.2198 0.351923 22.9956C0.255143 22.7715 0.226117 22.5239 0.268427 22.2835C0.310737 22.0431 0.422532 21.8203 0.59001 21.6426L20.59 0.392628C20.7833 0.187126 21.0404 0.0530493 21.3195 0.0121992C21.5987 -0.028651 21.8834 0.0261275 22.1275 0.167628V0.170128Z" fill="white"/>
</svg>
