<svg width="40" height="40" viewBox="0 0 40 40" fill="none" xmlns="http://www.w3.org/2000/svg">
<path d="M20 0C17.3846 0 15.3846 2 15.3846 4.61538V13.8462C15.3846 16.4615 17.3846 18.4615 20 18.4615H29.2308L35.3846 24.6154V18.4615C38 18.4615 40 16.4615 40 13.8462V4.61538C40 2 38 0 35.3846 0H20ZM26.4431 4.61538H29.0862L31.6831 13.8462H29.3754L28.7492 11.5385H26.4415L25.8662 13.8462H23.8462L26.4431 4.61538ZM27.6923 6.15385C27.5385 6.76923 27.3662 7.52 27.2108 7.98154L26.78 10H28.6062L28.1723 7.98C27.8662 7.52 27.6923 6.76923 27.6923 6.15385ZM4.61538 15.3846C2 15.3846 0 17.3846 0 20V29.2308C0 31.8462 2 33.8462 4.61538 33.8462V40L10.7692 33.8462H20C22.6154 33.8462 24.6154 31.8462 24.6154 29.2308V20H20C17.0769 20 14.76 18 13.9908 15.3846H4.61538ZM11.6831 19.8554C14.2985 19.8554 15.5292 22.0092 15.5292 24.4708C15.5292 26.6246 14.7892 27.9908 13.5585 28.6062C14.1738 28.9138 14.9031 29.0769 15.6723 29.2308L15.0969 30.7692C14.02 30.4615 12.9031 29.9815 11.8262 29.5185C11.6723 29.3646 11.4031 29.3754 11.2492 29.3754C9.40308 29.2215 7.69231 27.6923 7.69231 24.6154C7.69231 22 9.22154 19.8554 11.6831 19.8554ZM11.6831 21.5385C10.4523 21.5385 9.85538 22.9231 9.85538 24.6154C9.85538 26.4615 10.4523 27.6923 11.6831 27.6923C12.9138 27.6923 13.5569 26.3077 13.5569 24.6154C13.5569 22.9231 12.9138 21.5385 11.6831 21.5385Z" fill="white"/>
</svg>
