<svg width="33" height="33" viewBox="0 0 33 33" fill="none" xmlns="http://www.w3.org/2000/svg">
<path d="M30.36 15.5398C29.0906 16.8119 27.4725 17.679 25.7103 18.0314C23.9481 18.3839 22.121 18.2058 20.46 17.5198L9.64 30.5598C7.66 32.5398 4.46 32.5398 2.48 30.5598C0.499995 28.5798 0.499995 25.3798 2.48 23.4198L15.52 12.5798C14.16 9.27983 14.82 5.35983 17.5 2.67983C20.06 0.119833 23.74 -0.560167 26.94 0.559833L21.16 6.33983L26.8 11.9798L32.52 6.23983C33.58 9.39983 32.88 13.0198 30.36 15.5398ZM4.62 28.4198C5.42 29.1998 6.7 29.1998 7.47999 28.4198C8.27999 27.6198 8.27999 26.3398 7.47999 25.5598C6.7 24.7598 5.42 24.7598 4.62 25.5598C4.24501 25.9413 4.03488 26.4549 4.03488 26.9898C4.03488 27.5248 4.24501 28.0383 4.62 28.4198Z" fill="white"/>
</svg>
